<?xml version="1.0" encoding="UTF-8" standalone="no"?>
<!-- Created with Inkscape (http://www.inkscape.org/) -->

<svg
   width="190mm"
   height="165mm"
   viewBox="0 0 190 165"
   version="1.1"
   id="svg5"
   inkscape:version="1.1.1 (3bf5ae0d25, 2021-09-20)"
   sodipodi:docname="answerkeylogo.svg"
   xmlns:inkscape="http://www.inkscape.org/namespaces/inkscape"
   xmlns:sodipodi="http://sodipodi.sourceforge.net/DTD/sodipodi-0.dtd"
   xmlns="http://www.w3.org/2000/svg"
   xmlns:svg="http://www.w3.org/2000/svg">
  <sodipodi:namedview
     id="namedview7"
     pagecolor="#ffffff"
     bordercolor="#666666"
     borderopacity="1.0"
     inkscape:pageshadow="2"
     inkscape:pageopacity="0.0"
     inkscape:pagecheckerboard="0"
     inkscape:document-units="mm"
     showgrid="false"
     inkscape:zoom="0.72337262"
     inkscape:cx="397.44385"
     inkscape:cy="340.7649"
     inkscape:window-width="1920"
     inkscape:window-height="1001"
     inkscape:window-x="-9"
     inkscape:window-y="-9"
     inkscape:window-maximized="1"
     inkscape:current-layer="layer1" />
  <defs
     id="defs2" />
  <g
     inkscape:label="Layer 1"
     inkscape:groupmode="layer"
     id="layer1">
    <path
       style="fill:#000000;stroke-width:0.211183"
       d="m 84.069702,160.16457 c -0.57272,-0.29799 -2.13818,-1.33048 -3.4788,-2.29441 -1.34062,-0.96393 -3.03765,-2.08168 -3.77117,-2.48389 -0.73352,-0.40221 -1.75927,-1.0986 -2.27945,-1.54753 -0.62238,-0.53714 -1.29398,-0.89387 -1.96409,-1.04327 -1.18841,-0.26494 -1.71475,-0.81838 -1.72252,-1.81119 -0.003,-0.38552 -0.10819,-1.10334 -0.23372,-1.59515 -0.38574,-1.51129 -2.28203,-5.84301 -2.70793,-6.18577 -0.2395,-0.19274 -1.0189,-0.3786 -1.92584,-0.45925 -2.06722,-0.18381 -2.26326,-0.25119 -2.64818,-0.91022 -0.48516,-0.83066 -0.42517,-1.18805 0.19942,-1.18805 0.8738,0 1.13136,-0.45335 0.83986,-1.47829 -0.41313,-1.4526 -0.36699,-1.55901 0.47815,-1.10278 0.80674,0.4355 2.17594,0.51613 2.93245,0.17269 0.26963,-0.12241 0.79322,-0.47525 1.16355,-0.78409 0.37032,-0.30884 1.25459,-0.7967 1.96504,-1.08412 1.36446,-0.55202 1.73819,-0.93452 1.73819,-1.77896 0,-0.88548 0.87916,-2.10038 2.52609,-3.49078 1.71905,-1.45128 1.7236,-1.40637 -0.16948,-1.67346 -1.24332,-0.17541 -2.35661,-0.5038 -2.35661,-0.69512 0,-0.0881 0.21512,-0.20993 0.47803,-0.2708 0.35715,-0.0827 0.43584,-0.20161 0.3112,-0.47028 -0.4801,-1.03482 -0.46452,-1.05507 0.81178,-1.0554 2.14598,-5.9e-4 3.56856,-1.03386 3.90432,-2.83595 0.33097,-1.77645 0.82242,-2.13434 6.60429,-4.80946 4.5347,-2.0981 6.41141,-3.13189 6.77379,-3.7314 0.2317,-0.38331 0.1965,-1.18602 -0.16052,-3.66043 -0.1593,-1.10406 -0.13232,-1.14529 1.55982,-2.38432 0.32454,-0.23764 0.59008,-0.61081 0.59008,-0.82928 0,-0.70366 -1.00674,-1.51517 -2.34198,-1.88782 -0.69264,-0.19331 -1.20057,-0.43567 -1.12873,-0.53859 0.0718,-0.10291 0.24895,-0.18712 0.39358,-0.18712 0.14463,0 0.77167,-0.18667 1.39341,-0.41483 l 1.13043,-0.41483 5.50122,0.3738 5.501228,0.37381 2.0548,1.5349 c 3.36612,2.51445 5.35619,5.2216 6.3531,8.6423 0.26446,0.90745 0.49407,2.24875 0.51024,2.98067 0.0377,1.70452 -0.44267,2.543 -2.37234,4.14119 -1.54326,1.27816 -5.98853,4.19522 -6.48397,4.25488 -1.32732,0.15985 -1.24162,-0.0186 0.96185,-2.00247 1.21649,-1.09527 2.27854,-2.22686 2.36012,-2.51464 0.26301,-0.92778 -0.43739,-1.43358 -1.62095,-1.17057 -0.30001,0.0667 -1.42824,0.85806 -2.50718,1.75864 -1.23556,1.03132 -2.73321,2.02942 -4.045968,2.69643 -2.32831,1.18299 -2.73312,1.59584 -2.99322,3.05266 -0.19371,1.08493 -0.80858,1.83775 -1.65453,2.02573 -0.71552,0.159 -1.01425,1.02012 -0.7645,2.20373 0.27169,1.28759 0.48559,1.47228 1.55767,1.34497 1.03581,-0.12301 1.08859,0.0136 0.4401,1.13903 -0.62143,1.07847 -0.57245,1.54538 0.20346,1.93964 0.47031,0.23898 0.68855,0.53201 0.78213,1.05015 0.21125,1.16965 0.738,1.44159 2.47362,1.27702 1.259288,-0.1194 1.493488,-0.0917 1.616178,0.19142 0.18975,0.43779 -0.61941,1.1868 -1.853528,1.71575 -1.94824,0.83501 -5.80028,0.41046 -8.13982,-0.89713 -1.23263,-0.68893 -2.59259,-2.14736 -3.16332,-3.39236 -0.41504,-0.90537 -0.59291,-1.08965 -1.05181,-1.08965 -0.86044,0 -1.80519,0.97396 -1.94438,2.00449 -1.01253,7.49642 -0.873,8.18008 1.94487,9.5289 0.84052,0.40233 1.85704,1.01369 2.25893,1.35856 1.40849,1.20867 3.13418,1.20697 4.28528,-0.004 0.67615,-0.71144 0.71942,-1.41367 0.14822,-2.40561 -0.23112,-0.40137 -0.36578,-0.77796 -0.29925,-0.83686 0.26824,-0.23749 2.0026,-0.085 2.73942,0.24094 0.59868,0.2648 0.97239,0.67831 1.57107,1.73842 0.72949,1.29174 0.84158,1.39493 1.57107,1.44643 0.43204,0.0305 1.310228,0.28459 1.951538,0.56464 1.89319,0.82673 2.6813,0.47297 4.4331,-1.98986 1.38547,-1.94782 1.39517,-2.03309 0.32934,-2.89568 -1.40209,-1.13472 -1.06544,-1.7436 0.72448,-1.31032 0.53502,0.12952 0.66986,0.0399 1.3774,-0.91584 0.43137,-0.58268 0.85302,-1.26061 0.937,-1.50652 0.27961,-0.81873 0.64315,-0.4914 0.82759,0.74517 0.0245,0.16393 -0.0246,0.70046 -0.10905,1.19227 -0.0844,0.49181 -0.18953,2.10137 -0.23357,3.5768 -0.044,1.47543 -0.21671,3.08214 -0.38371,3.57047 -0.43687,1.27743 -1.64708,2.2213 -3.85221,3.00443 -1.01738,0.36131 -2.41299,0.94748 -3.10136,1.30261 -3.621618,1.86839 -7.681548,2.45433 -12.186488,1.75879 -1.06605,-0.16459 -2.46798,-0.47752 -3.11542,-0.69539 -1.5378,-0.51749 -1.92938,-0.4998 -2.1864,0.0987 -0.25305,0.58928 -0.11289,0.98989 0.62633,1.79013 0.7384,0.79937 1.33936,1.07744 2.34674,1.08587 1.0166,0.008 1.11235,0.3858 0.25028,0.98618 -0.84518,0.5886 -2.18396,0.53503 -3.47986,-0.13926 z m 1.6024,-46.79554 c 0,-0.0527 0.26941,-0.62118 0.59868,-1.26321 0.59218,-1.15462 0.81457,-2.9589 0.52351,-4.24734 -0.0982,-0.43461 -0.0265,-0.5042 0.57305,-0.55613 1.39375,-0.12071 2.56909,1.27785 2.56909,3.05702 0,0.80431 -0.11004,1.02139 -0.84978,1.67633 -0.51055,0.45202 -1.23292,0.84371 -1.80954,0.98119 -0.52788,0.12584 -1.10495,0.27813 -1.28239,0.33842 -0.17744,0.0603 -0.32262,0.0665 -0.32262,0.0137 z m 5.979,-10.07686 c -0.72339,-0.20461 -1.88486,-0.67464 -2.58105,-1.04451 -1.64337,-0.87311 -2.22828,-1.08491 -3.44077,-1.24589 -1.29436,-0.17185 -2.68725,0.16777 -4.10552,1.00104 -2.34536,1.37794 -3.36641,1.37176 -5.05978,-0.0306 -1.06878,-0.88512 -1.08849,-0.89167 -2.55739,-0.84956 -0.81417,0.0233 -1.50872,0.006 -1.54345,-0.0386 -0.0347,-0.0446 -0.16304,-0.34932 -0.28512,-0.67719 -0.19021,-0.510834 -0.31739,-0.586294 -0.88875,-0.527374 -0.36672,0.0378 -1.25737,0.416874 -1.97921,0.842354 -1.62283,0.95656 -2.75069,1.27139 -3.88411,1.0842 -0.70275,-0.11607 -1.23893,-0.48679 -2.88324,-1.993554 -2.15187,-1.97186 -2.86258,-2.39371 -4.39928,-2.61127 -1.42576,-0.20186 -1.99641,-0.80109 -2.00065,-2.10085 -0.002,-0.57875 -0.0797,-1.15845 -0.1729,-1.28823 -0.22823,-0.31778 -1.28324,-0.65824 -2.03977,-0.65824 -0.33869,0 -0.80447,-0.12214 -1.03505,-0.27142 -0.3734,-0.24174 -0.38734,-0.33963 -0.12747,-0.89511 0.38974,-0.83305 1.60686,-1.75144 2.64625,-1.99675 0.84886,-0.20034 1.67214,-0.0997 3.16505,0.38696 0.65777,0.21441 0.82241,0.19623 1.34663,-0.14872 0.99301,-0.65342 0.88485,-1.2242 -0.4193,-2.21279 -1.76107,-1.33495 -2.11159,-1.44297 -3.85317,-1.18746 -1.82143,0.26722 -4.47026,-0.0248 -5.32868,-0.58752 -0.31606,-0.20718 -0.8362,-0.81055 -1.15587,-1.34082 -0.6696,-1.11074 -1.61094,-1.89465 -4.33602,-3.61084 -2.22432,-1.40083 -3.6435,-1.7927 -5.1825,-1.43101 -1.26265,0.29675 -1.7369,0.31326 -1.83541,0.0639 -0.0469,-0.11879 0.29634,-0.3583 0.76282,-0.53224 4.07224,-1.51847 4.7549,-1.7293 5.60916,-1.73232 0.52006,-0.002 1.45802,0.1755 2.08437,0.39408 2.02573,0.70694 2.66905,0.45913 3.14304,-1.2107 0.39891,-1.405341 -0.0815,-2.238801 -1.65889,-2.878191 -2.03845,-0.826251 -4.17413,-1.131511 -7.09512,-1.014101 -3.04975,0.12257 -5.02503,0.60633 -6.36306,1.558341 -1.19769,0.85217 -2.02655,0.83111 -4.12559,-0.10478 -1.81556,-0.809491 -2.0591,-0.844711 -2.96692,-0.42907 -0.76861,0.3519 -0.90849,0.17132 -0.90849,-1.172801 0,-1.07328 -0.46862,-1.46877 -1.99318,-1.68215 -1.583764,-0.22166 -2.046719,-0.63666 -2.046719,-1.8347 0,-0.84162 -0.08419,-1.01134 -0.699332,-1.40985 -0.384632,-0.24918 -1.116863,-0.97867 -1.627179,-1.6211 -0.510317,-0.64242 -1.026576,-1.288256 -1.147242,-1.435186 -0.14563,-0.177324 -0.136,-0.340976 0.02864,-0.486745 0.181089,-0.160332 0.573483,-0.05912 1.453806,0.37498 0.688422,0.339473 2.018244,0.738621 3.099383,0.930291 3.716023,0.65879 6.111343,-0.17948 5.505653,-1.926788 -0.4629,-1.335419 -1.12127,-1.435297 -9.531432,-1.446 l -7.069815,-0.009 -1.34663,-0.590401 -1.3466307,-0.590403 1.3466307,-0.218853 c 1.750093,-0.284423 2.356604,-0.583865 2.356604,-1.163484 0,-0.560173 -0.685698,-1.191945 -2.964919,-2.731749 -2.074418,-1.40144 -2.870483,-2.266542 -2.870483,-3.119416 0,-0.344881 0.05604,-0.627055 0.124533,-0.627055 0.06849,0 0.560905,0.176002 1.0942483,0.391117 0.533343,0.215115 1.361196,0.446542 1.8396727,0.514285 0.73782,0.104456 0.993516,0.03623 1.683421,-0.449191 0.447404,-0.314796 1.204719,-0.719748 1.68292,-0.899896 0.478202,-0.180147 1.345427,-0.505191 1.927167,-0.722319 0.779103,-0.290792 1.09714,-0.533872 1.207401,-0.922829 0.238333,-0.840743 -0.29471,-1.127138 -2.403355,-1.291285 -1.629629,-0.126855 -1.916795,-0.208953 -2.37284,-0.678362 -0.28536,-0.293722 -0.518835,-0.755477 -0.518835,-1.026119 0,-0.802184 -0.566561,-1.765168 -1.34226,-2.281444 C 9.8659403,45.581203 9.1838893,45.070843 8.7494513,44.712746 8.05511,44.140418 7.975134,43.976711 8.088286,43.359365 c 0.0708,-0.386265 0.5885643,-1.25017 1.1505933,-1.919791 1.2806757,-1.525844 1.3012887,-1.967082 0.124115,-2.656801 -0.493764,-0.289301 -0.897754,-0.603539 -0.897754,-0.698309 0,-0.09477 0.459079,-0.172304 1.020175,-0.172304 0.7838977,0 1.1477657,-0.112964 1.5710697,-0.487747 1.074199,-0.951064 0.726333,-1.497333 -1.8057097,-2.835577 L 7.455269,33.639831 6.918824,32.248853 C 6.451777,31.037821 6.375035,30.433711 6.325615,27.579139 6.288355,25.426868 6.144942,23.835342 5.908196,22.946773 5.427807,21.143748 5.451383,20.745384 6.076559,20.101887 l 0.529018,-0.54452 0.512349,1.377961 c 0.668004,1.796598 1.6834833,3.58233 2.1218253,3.731255 0.9857397,0.334903 1.3567937,-0.374659 1.1387197,-2.17757 -0.122787,-1.01514 -0.09118,-1.268634 0.158176,-1.268634 0.617041,0 1.049742,0.523527 1.724488,2.086468 1.356071,3.141112 6.250688,9.552081 6.872476,9.001567 0.1943,-0.172026 -1.233151,-3.928841 -1.947956,-5.126698 -0.3587,-0.601101 -0.990728,-1.465571 -1.404509,-1.921043 -0.41378,-0.45547 -1.141447,-1.66264 -1.617037,-2.682601 C 13.468685,21.086653 13.045278,20.494769 12.001336,19.55472 10.305041,18.027239 10.228094,17.732566 10.943316,15.502986 11.340663,14.264325 10.781414,13.098028 9.0818903,11.621039 7.115901,9.9124769 7.651081,9.3263899 10.103396,10.502365 c 1.343674,0.644341 2.1773,1.402527 2.1773,1.980257 0,0.429341 0.628782,0.671981 1.011889,0.390477 0.173889,-0.127772 0.318693,-0.908499 0.378407,-2.040218 0.08001,-1.5163851 0.20936,-2.0345151 0.748381,-2.9977411 0.607959,-1.086413 2.170001,-2.51166 2.752732,-2.51166 0.438848,0 0.519431,0.375183 0.201474,0.938042 -0.171593,0.303761 -0.439105,1.099028 -0.594471,1.767262 -0.31933,1.373447 -0.182014,1.772578 0.925441,2.6899461 0.739611,0.612662 0.807174,1.242747 0.280108,2.612283 -0.294356,0.764861 -0.308888,1.050789 -0.08406,1.653932 0.273035,0.732468 2.528725,3.099644 3.067918,3.219546 0.443263,0.09857 0.738603,-0.842096 0.738603,-2.352471 0,-2.909382 0.699502,-4.168464 2.544354,-4.579753 1.41113,-0.314595 1.86906,-0.762389 2.05876,-2.0131941 0.22438,-1.479435 0.61743,-2.215657 1.48902,-2.789044 0.74598,-0.490751 1.9933,-0.947838 2.58652,-0.947838 0.72898,0 -0.49471,2.520401 -2.17074,4.471003 -3.55411,4.1363601 -4.06933,8.8364511 -1.68076,15.3327181 2.14246,5.826941 6.23656,11.38522 13.63663,18.51352 9.03487,8.703066 21.70115,17.342913 40.11468,27.362782 3.14775,1.71287 6.05953,3.351161 6.47063,3.640641 0.41109,0.28949 0.98604,0.69646 1.27767,0.90439 0.50079,0.357061 0.56209,0.359561 1.10417,0.0451 0.77446,-0.44928 0.74326,-1.1182 -0.14186,-3.041051 -0.59135,-1.28466 -0.71803,-1.83142 -0.7286,-3.14472 -0.0118,-1.47163 0.0499,-1.69187 0.83076,-2.96552 0.57031,-0.93015 0.79652,-1.509472 0.69832,-1.788399 -0.0799,-0.226915 -0.78743,-1.017197 -1.5723,-1.756183 -2.38246,-2.243149 -3.30028,-4.28115 -4.36158,-9.684863 -0.78764,-4.010374 -0.81218,-4.698929 -0.18842,-5.286784 0.28973,-0.273051 0.93349,-0.659032 1.43059,-0.857739 1.74123,-0.696034 2.5769,-1.982947 2.59077,-3.98975 0.007,-1.034532 0.60082,-2.296708 1.36945,-2.911475 0.29402,-0.235171 0.99218,-0.615836 1.55145,-0.845922 1.61372,-0.663882 2.60856,-1.518442 3.37739,-2.901148 0.89324,-1.606439 1.12899,-4.097024 0.5547,-5.860263 -0.19578,-0.601101 -0.52256,-1.849296 -0.72618,-2.773766 -0.65863,-2.990302 0.0681,-4.922838 2.14716,-5.709528 1.04671,-0.396069 1.25647,-0.116502 0.71112,0.947783 -0.64566,1.260032 -0.60805,2.973537 0.0946,4.309772 0.71272,1.355402 1.06958,1.463525 2.05092,0.621398 1.02847,-0.882558 1.13712,-0.699471 1.299798,2.190267 0.16474,2.926383 0.55979,4.383745 1.59353,5.878633 0.82403,1.191606 0.82441,1.193206 0.68241,2.881313 -0.0781,0.928975 -0.23016,2.896216 -0.33782,4.371647 -0.10767,1.475431 -0.26736,3.228122 -0.35486,3.894868 -0.19023,1.449489 0.14682,2.537471 0.92612,2.989557 0.80254,0.465564 1.10379,0.239935 1.53976,-1.153227 0.34393,-1.099058 1.05909,-2.157366 1.45488,-2.152955 0.0711,7.95e-4 0.14019,0.649086 0.15362,1.440657 0.0137,0.806034 0.28521,2.386007 0.6172,3.591268 0.77146,2.800638 0.75906,3.550588 -0.0834,5.043188 -1.25314,2.220288 -4.63078,5.0255 -6.051,5.0255 -1.175788,0 -2.090278,-1.02127 -1.150868,-1.28525 0.23441,-0.06587 0.6889,-0.352349 1.009968,-0.636621 0.81234,-0.719216 0.76623,-1.769446 -0.186798,-4.255187 -0.42382,-1.105426 -0.82109,-2.054582 -0.88283,-2.109236 -0.46647,-0.413005 -1.47703,1.47492 -1.4838,2.772057 -0.004,0.856454 -0.0537,0.943879 -0.53124,0.943879 -0.74852,0 -1.21438,-0.54896 -1.51338,-1.783322 -0.37685,-1.555808 -0.15197,-2.965495 0.92013,-5.767705 0.72428,-1.893082 0.97751,-2.892159 1.06463,-4.200344 0.11744,-1.763191 -0.0477,-3.151972 -0.37478,-3.151972 -0.10171,0 -0.44093,0.514166 -0.75382,1.14259 -0.88398,1.775443 -1.04982,1.90849 -2.32894,1.868406 -0.61013,-0.01912 -1.28523,0.07991 -1.50216,0.220353 -0.24617,0.159374 -0.56259,0.924403 -0.84332,2.03899 -1.54505,6.134317 -1.48498,7.761559 0.41351,11.20167 1.34659,2.440055 2.87145,3.843427 5.39843,4.968323 1.01811,0.453217 2.24086,1.13579 2.717228,1.51683 2.00498,1.60373 2.36342,4.3129 0.95499,7.21807 -0.82499,1.701731 -0.87695,2.264281 -0.25963,2.810831 0.58657,0.519341 0.74191,0.503811 1.61938,-0.16189 0.40548,-0.30762 3.86815,-2.288941 7.69483,-4.402931 15.11868,-8.352083 23.99031,-14.09318 33.29815,-21.548247 3.14148,-2.516146 9.0503,-8.082707 11.82472,-11.13979 6.12761,-6.751887 9.75919,-14.315735 9.74904,-20.305255 -0.006,-3.357265 -0.80289,-5.44815 -3.10735,-8.1499541 -1.18858,-1.393528 -2.70993,-4.11892 -2.43508,-4.362269 0.0456,-0.04036 0.59381,0.06096 1.21828,0.22515 1.38516,0.364194 2.61146,1.477279 2.99459,2.718115 0.68852,2.2298891 0.6066,2.1251991 2.19304,2.8027451 2.02833,0.866277 2.32934,1.363521 2.49271,4.117799 0.1787,3.012639 0.68593,3.461657 2.07301,1.835104 1.46744,-1.720789 1.75615,-2.432151 1.75615,-4.327117 0,-1.81289 0.13533,-2.191432 1.1551,-3.2308251 0.35222,-0.358999 0.6404,-0.786294 0.6404,-0.949545 0,-0.16325 -0.30299,-0.828239 -0.67331,-1.477753 -1.13255,-1.986388 -0.80553,-2.680083 0.68365,-1.45022 0.61651,0.509156 1.14296,1.241177 1.61485,2.245416 0.61004,1.298262 0.69523,1.700514 0.66204,3.1261521 -0.0359,1.542629 -0.006,1.654736 0.52176,1.96094 0.72895,0.422877 1.09752,0.161981 1.43185,-1.013561 0.2826,-0.993653 0.73068,-1.291925 1.9408,-1.291925 0.78438,0 0.81718,0.02625 0.6721,0.53802 -0.0839,0.295911 -0.49311,0.871806 -0.9094,1.279767 -0.9519,0.932865 -1.19959,1.952643 -0.69969,2.880775 0.72621,1.348315 0.51881,2.128205 -1.06958,4.021892 -2.86221,3.41235 -4.96636,6.84191 -6.39236,10.41897 l -0.68778,1.725257 h 0.51921 c 0.64138,0 2.86919,-2.001931 4.05645,-3.645169 0.97905,-1.355068 1.91633,-3.257128 2.56999,-5.215423 0.44232,-1.325118 0.99154,-2.068526 1.52821,-2.068526 0.15437,0 0.19546,0.609316 0.12005,1.780313 -0.1133,1.759221 -0.10785,1.783056 0.45929,2.011842 0.48823,0.196953 0.67766,0.166145 1.26841,-0.20629 0.88087,-0.555334 1.29604,-1.268368 1.48921,-2.557606 0.0841,-0.561552 0.27507,-1.168837 0.4243,-1.349522 0.24852,-0.300918 0.30837,-0.293305 0.71236,0.09063 0.4149,0.394288 0.42459,0.516641 0.16354,2.063612 -0.15263,0.90446 -0.34446,3.209323 -0.42629,5.121919 -0.0818,1.912596 -0.23948,3.798991 -0.35034,4.191988 -0.34945,1.238756 -1.35468,2.2256 -3.08897,3.032477 -1.78724,0.831511 -2.14547,1.357158 -1.51005,2.215767 0.26454,0.357454 0.56817,0.495938 1.09083,0.497517 1.17535,0.0036 2.4082,0.233524 2.27498,0.424374 -0.068,0.09742 -0.60888,0.394831 -1.20195,0.660912 -1.63435,0.733252 -1.631,0.766101 0.32149,3.156838 1.22911,1.504983 0.99074,2.520536 -0.82362,3.50895 -1.26098,0.686951 -1.97679,1.60727 -1.97798,2.543108 -0.002,1.359718 -1.03545,2.023727 -3.15052,2.023727 -1.40345,0 -2.0124,0.265339 -2.0124,0.876861 0,0.567613 0.26694,0.775292 1.57107,1.222307 0.55548,0.190403 1.58956,0.690181 2.29795,1.110621 1.65895,0.98461 2.45924,0.997953 4.36045,0.07271 1.38534,-0.674188 1.42126,-0.680487 1.41646,-0.248389 -0.0109,0.980052 -0.86236,2.077512 -2.81803,3.632181 -3.6892,2.932765 -3.57887,2.78585 -2.68599,3.576373 0.46505,0.411743 0.76523,0.487747 1.92643,0.487747 1.86144,0 1.67656,0.313059 -0.69949,1.184396 -2.13417,0.782642 -3.28401,0.862619 -6.48516,0.451082 -3.66399,-0.471041 -9.25512,-0.190156 -10.32769,0.518837 -0.82214,0.543456 -0.80726,1.913929 0.0268,2.465245 1.34916,0.89183 4.76865,0.61431 7.53999,-0.611936 2.22726,-0.985501 2.4414,-0.500335 0.60575,1.372376 -0.68836,0.70226 -1.67309,1.98678 -2.18828,2.85449 -1.05349,1.77433 -1.67822,2.27649 -3.03221,2.43728 -0.92988,0.11043 -0.93443,0.11507 -0.93443,0.95467 0,1.05691 -0.31086,1.291741 -1.9596,1.480341 -0.71212,0.0815 -1.85025,0.38401 -2.52917,0.67233 -1.78797,0.75929 -2.96848,0.71777 -3.88664,-0.13671 -1.04073,-0.968541 -3.23924,-1.422021 -6.88641,-1.420441 -3.64407,0.002 -5.99655,0.45546 -7.13081,1.375781 -0.68619,0.55676 -0.8055,0.78973 -0.88083,1.719961 -0.10201,1.25978 0.24703,1.98339 1.08215,2.24342 0.45339,0.14117 0.86387,0.0615 1.88425,-0.36593 1.80335,-0.75532 3.28817,-0.65428 5.14662,0.35025 0.7347,0.39712 1.59317,0.77324 1.90773,0.83584 0.31456,0.0626 0.79827,0.26693 1.07489,0.45408 0.48605,0.32883 0.43321,0.34033 -1.57107,0.34187 -1.88012,0.001 -2.21042,0.0612 -3.53288,0.63949 -2.24753,0.98274 -4.71919,2.77402 -5.42993,3.93521 -0.33247,0.54319 -0.90298,1.22417 -1.26779,1.51329 -1.05381,0.83517 -3.70524,1.18426 -6.00114,0.79014 -1.15323,-0.19797 -1.70795,-0.0149 -2.99442,0.98807 -0.56507,0.44055 -1.14111,0.878 -1.2801,0.97209 -0.31967,0.21643 -0.13763,1.10693 0.29062,1.4216 0.25315,0.18601 0.71368,0.1828 2.08625,-0.0145 2.36016,-0.33934 3.41324,-0.16297 4.40044,0.737 1.46484,1.3354 1.26406,2.11865 -0.58337,2.27581 -1.6015,0.13625 -2.01804,0.5386 -1.95331,1.88677 0.046,0.95786 -0.0176,1.13539 -0.55227,1.54281 -0.33233,0.25321 -1.03931,0.52242 -1.57107,0.59823 -1.43198,0.20417 -2.68667,0.93509 -4.00282,2.33185 -1.68053,1.783464 -2.48349,2.242104 -3.8946,2.224524 -1.25143,-0.0156 -2.39355,-0.45131 -3.81721,-1.45626 -1.16271,-0.820754 -1.59977,-0.788824 -2.14457,0.15666 l -0.44515,0.77255 -1.457,-0.10355 -1.45699,-0.10355 -1.15661,0.92069 c -1.05535,0.84008 -1.2565,0.92068 -2.29758,0.92068 -0.92446,0 -1.42029,-0.14687 -2.61288,-0.77398 -2.89655,-1.52312 -4.16588,-1.5287 -7.30732,-0.0321 -1.11097,0.52927 -2.568508,1.106 -3.238978,1.28162 -1.68627,0.4417 -4.90918,0.40557 -6.60493,-0.0741 z m 4.06005,-20.769374 c 0.3992,-0.98958 2.07561,-8.152861 2.0785,-8.881412 0.002,-0.41091 -0.28993,-0.74618 -1.25286,-1.44066 -0.69024,-0.49781 -1.34643,-0.90511 -1.4582,-0.90511 -0.20775,0 -1.88398,1.25092 -2.39644,1.7884 -0.1563,0.16393 -0.24322,0.56632 -0.19315,0.894201 0.0776,0.50782 1.70614,7.631961 2.05853,9.004881 0.17905,0.69759 0.79479,0.45402 1.16362,-0.4603 z"
       id="path39" />
  </g>
</svg>
