<?xml version="1.0" encoding="UTF-8" standalone="no"?>
<!-- Created with Inkscape (http://www.inkscape.org/) -->

<svg
   width="468"
   height="80"
   viewBox="0 0 123.825 21.16666"
   version="1.1"
   id="svg5"
   inkscape:version="1.1.1 (3bf5ae0d25, 2021-09-20)"
   sodipodi:docname="pagelogo.svg"
   xmlns:inkscape="http://www.inkscape.org/namespaces/inkscape"
   xmlns:sodipodi="http://sodipodi.sourceforge.net/DTD/sodipodi-0.dtd"
   xmlns="http://www.w3.org/2000/svg"
   xmlns:svg="http://www.w3.org/2000/svg">
  <sodipodi:namedview
     id="namedview7"
     pagecolor="#ffffff"
     bordercolor="#666666"
     borderopacity="1.0"
     inkscape:pageshadow="2"
     inkscape:pageopacity="0.0"
     inkscape:pagecheckerboard="0"
     inkscape:document-units="mm"
     showgrid="false"
     units="px"
     inkscape:zoom="1.4467452"
     inkscape:cx="322.44793"
     inkscape:cy="244.34157"
     inkscape:window-width="1920"
     inkscape:window-height="1001"
     inkscape:window-x="-9"
     inkscape:window-y="-9"
     inkscape:window-maximized="1"
     inkscape:current-layer="layer1" />
  <defs
     id="defs2" />
  <g
     inkscape:label="Layer 1"
     inkscape:groupmode="layer"
     id="layer1">
    <path
       style="fill:#000000;stroke-width:0.211667"
       d="m 3.0769189,19.611109 c -1.477277,-0.375251 -2.019656,-1.4404 -2.019656,-3.966303 v -1.805965 h 1.481667 1.481667 v 1.227667 c 0,0.675216 0.1143,1.341966 0.254,1.481666 0.1397,0.1397 0.69215,0.254 1.227667,0.254 0.535516,0 1.087966,-0.1143 1.227666,-0.254 0.156342,-0.156341 0.254001,-0.922733 0.254001,-1.993303 V 12.81557 l -2.698751,-0.892551 c -1.484312,-0.490903 -2.817812,-0.986705 -2.963333,-1.101782 -0.387703,-0.306593 -0.367581,-6.6978179 0.02404,-7.6350949 0.497121,-1.189778 1.218139,-1.495259 3.733045,-1.581617 2.703589,-0.09284 3.693538,0.179476 4.384346,1.206035 0.418436,0.621806 0.483988,0.987331 0.483988,2.69875 v 1.979531 h -1.481669 -1.481666 v -1.227666 c 0,-0.675217 -0.114301,-1.341967 -0.254001,-1.481667 -0.335313,-0.335314 -1.895396,-0.325678 -2.360728,0.01458 -0.307672,0.224975 -0.357197,0.556573 -0.305039,2.042402 l 0.06227,1.77382 2.857501,0.973848 2.8575,0.9738479 0.05488,3.598333 c 0.05035,3.300895 0.01934,3.656249 -0.375052,4.298988 -0.627207,1.022145 -1.527449,1.314463 -3.959283,1.285625 -1.138802,-0.0135 -2.257079,-0.07194 -2.48506,-0.129845 z m 11.8797901,0.01329 c -0.07761,-0.07762 -0.141111,-3.506616 -0.141111,-7.620006 V 4.5255051 H 13.32426 11.832922 l 0.06259,-1.42875 0.06259,-1.42875 h 4.445 4.445 v 1.375833 1.375834 l -1.534583,0.06219 -1.534584,0.06219 v 7.6107269 7.610727 H 16.43838 c -0.737306,0 -1.404056,-0.0635 -1.481667,-0.141112 z m 9.489723,-0.14456 c -0.34925,-0.160323 -0.8255,-0.504907 -1.058334,-0.765746 -0.405642,-0.454432 -0.425843,-0.818704 -0.483391,-8.7170858 l -0.06006,-8.2428361 1.435892,0.06275 1.435892,0.06275 0.05577,7.178421 c 0.03782,4.8670519 0.131354,7.2694899 0.2905,7.4612489 0.293776,0.353979 2.12239,0.375332 2.468893,0.02883 0.187682,-0.187682 0.254,-2.149593 0.254,-7.5141659 v -7.260167 h 1.491086 1.491086 l -0.06234,8.0962501 c -0.06757,8.7765848 -0.04077,8.5757998 -1.26002,9.4380868 -0.673699,0.476458 -5.06149,0.602016 -5.998983,0.171664 z m 9.630834,-8.802063 V 1.5621721 h 3.287632 c 3.732439,0 4.492105,0.19238 5.17361,1.310179 0.406148,0.666163 0.427061,1.049717 0.424847,7.7914869 -0.0025,7.623374 -0.01651,7.730105 -1.122081,8.552095 -0.540927,0.40218 -0.932455,0.449999 -4.180417,0.510593 l -3.583591,0.06685 z m 5.805714,5.791776 c 0.28523,-0.285229 0.33262,-1.112395 0.33262,-5.805714 0,-6.3629309 0.07026,-6.1383329 -1.92012,-6.1383329 h -1.254881 v 6.1383329 6.138333 h 1.254881 c 0.858579,0 1.359925,-0.105044 1.5875,-0.332619 z m 9.152065,3.154841 c -0.07761,-0.07761 -0.141111,-1.781323 -0.141111,-3.786029 V 12.193447 L 46.861385,7.2482261 c -1.117903,-2.719871 -2.080594,-5.064283 -2.139313,-5.209804 -0.07973,-0.197589 0.293796,-0.264584 1.475179,-0.264584 h 1.581942 l 1.232264,3.187164 c 0.677746,1.752941 1.296459,3.226838 1.374917,3.275328 0.07846,0.04849 0.707181,-1.361922 1.397161,-3.134248 l 1.254513,-3.22241 1.52627,-0.06219 c 0.84222,-0.03432 1.52628,0.02585 1.52628,0.134251 0,0.108042 -0.9525,2.509222 -2.11666,5.335955 l -2.116671,5.1395129 v 3.669153 3.669151 h -1.340555 c -0.737307,0 -1.404057,-0.0635 -1.481667,-0.141112 z M 64.980598,19.39476 c -1.43045,-0.714591 -1.48097,-1.010764 -1.48134,-8.684804 -4.2e-4,-7.4586289 0.0556,-7.8646159 1.18788,-8.6247059 0.49971,-0.335439 1.07538,-0.424155 3.16139,-0.487194 4.18235,-0.126392 4.96156,0.491087 4.96295,3.932866 l 7.9e-4,1.957916 h -1.37584 -1.37583 v -1.149047 c 0,-1.517628 -0.30704,-1.814286 -1.87779,-1.814286 -0.6669,0 -1.32684,0.1143 -1.46654,0.254 -0.36191,0.361906 -0.36191,11.4067609 0,11.7686659 0.1397,0.1397 0.79964,0.254 1.46654,0.254 1.68112,0 1.87779,-0.244098 1.87779,-2.330674 v -1.665438 l -0.79375,-0.06569 -0.79375,-0.0657 V 11.298836 9.9230032 l 2.16958,-0.06032 2.16959,-0.06032 -8.5e-4,3.9761548 c -6.3e-4,3.614706 -0.0396,4.039847 -0.42797,4.676809 -0.63641,1.043849 -1.50561,1.310231 -4.27402,1.30985 -1.84945,-2.11e-4 -2.55514,-0.0838 -3.12888,-0.370416 z m 11.868378,0.0094 c -0.39918,-0.208702 -0.92306,-0.64824 -1.164168,-0.976753 -0.42507,-0.579175 -0.43838,-0.839445 -0.43838,-8.5725108 V 1.8796951 l 1.420808,-0.06241 1.42081,-0.06241 0.0609,7.319879 c 0.0518,6.2307389 0.1081,7.3497169 0.37836,7.5204159 0.45402,0.286766 2.1967,0.253987 2.49766,-0.04698 0.18769,-0.187682 0.254,-2.149593 0.254,-7.5141659 v -7.260167 h 1.48167 1.48167 l -4.2e-4,7.77875 c -4.3e-4,8.5630909 -0.0194,8.7006299 -1.33732,9.6687049 -0.85564,0.628508 -4.96584,0.752606 -6.05565,0.182833 z m 9.72162,-8.634466 V 1.7738611 h 1.48167 1.48167 v 8.9958329 8.995834 h -1.48167 -1.48167 z m 5.29167,-0.09189 V 1.5622001 h 3.28763 c 3.73244,0 4.49211,0.19238 5.173614,1.310179 0.40615,0.666163 0.42706,1.049717 0.42485,7.7914869 -0.002,7.623374 -0.0165,7.730105 -1.122084,8.552095 -0.54093,0.40218 -0.93246,0.449999 -4.18042,0.510593 l -3.58359,0.06685 z m 5.80571,5.791776 c 0.28523,-0.285229 0.33262,-1.112395 0.33262,-5.805714 0,-6.3629309 0.0703,-6.1383329 -1.92012,-6.1383329 h -1.25488 v 6.1383329 6.138333 h 1.25488 c 0.85858,0 1.35993,-0.105044 1.5875,-0.332619 z m 5.624294,-5.695586 V 1.7738661 h 4.45467 4.45467 l -0.0626,1.42875 -0.0626,1.42875 -3.01625,0.05873 -3.01625,0.05873 v 2.216688 2.216688 h 2.32833 2.32833 v 1.4816669 1.481667 h -2.32833 -2.32833 v 2.328333 2.328333 h 3.07883 3.07884 l -0.0626,1.42875 -0.0626,1.42875 -4.39209,0.05721 -4.39208,0.05721 z m 13.17805,8.850911 c -0.69189,-0.145846 -1.66922,-1.211489 -1.82488,-1.989776 -0.0742,-0.3708 -0.13484,-1.376648 -0.13484,-2.235221 v -1.561042 h 1.48167 1.48167 v 1.072248 c 0,1.582143 0.23636,1.891085 1.44678,1.891085 0.5547,0 1.12285,-0.1143 1.26255,-0.254 0.15634,-0.156341 0.254,-0.922733 0.254,-1.993303 v -1.739301 l -2.69875,-0.892551 c -1.48431,-0.490903 -2.81781,-0.986705 -2.96333,-1.101782 -0.43156,-0.341271 -0.36215,-6.4666479 0.086,-7.5865879 0.50882,-1.271664 1.48061,-1.661823 4.15417,-1.667826 2.22138,-0.005 3.14031,0.24431 3.85612,1.046125 0.3534,0.39587 0.43525,0.837749 0.49551,2.675047 l 0.0722,2.200846 h -1.50094 -1.50093 v -1.227666 c 0,-0.675217 -0.1143,-1.341967 -0.254,-1.481667 -0.37544,-0.375443 -1.98109,-0.317002 -2.3849,0.0868 -0.26851,0.26851 -0.32784,0.701754 -0.2797,2.042402 l 0.0611,1.701599 2.8575,0.973848 2.8575,0.9738479 0.0524,3.598333 c 0.0568,3.90068 -0.0235,4.279553 -1.07259,5.059595 -0.51468,0.382677 -0.92245,0.448226 -2.96333,0.476348 -1.30159,0.01793 -2.58003,-0.0124 -2.84098,-0.0674 z"
       id="path21" />
  </g>
</svg>
