<?xml version="1.0" encoding="UTF-8" standalone="no"?>
<!-- Created with Inkscape (http://www.inkscape.org/) -->

<svg
   width="115mm"
   height="110mm"
   viewBox="0 0 115 110"
   version="1.1"
   id="svg952"
   inkscape:version="1.1.1 (3bf5ae0d25, 2021-09-20)"
   sodipodi:docname="quizlogo.svg"
   xmlns:inkscape="http://www.inkscape.org/namespaces/inkscape"
   xmlns:sodipodi="http://sodipodi.sourceforge.net/DTD/sodipodi-0.dtd"
   xmlns="http://www.w3.org/2000/svg"
   xmlns:svg="http://www.w3.org/2000/svg">
  <sodipodi:namedview
     id="namedview954"
     pagecolor="#ffffff"
     bordercolor="#666666"
     borderopacity="1.0"
     inkscape:pageshadow="2"
     inkscape:pageopacity="0.0"
     inkscape:pagecheckerboard="0"
     inkscape:document-units="mm"
     showgrid="false"
     units="mm"
     inkscape:zoom="0.72337262"
     inkscape:cx="-8.9856871"
     inkscape:cy="340.7649"
     inkscape:window-width="1920"
     inkscape:window-height="1001"
     inkscape:window-x="-9"
     inkscape:window-y="-9"
     inkscape:window-maximized="1"
     inkscape:current-layer="layer1" />
  <defs
     id="defs949" />
  <g
     inkscape:label="Layer 1"
     inkscape:groupmode="layer"
     id="layer1">
    <path
       style="fill:#000000;stroke-width:0.215254"
       d="m 58.040472,104.384 c -0.415113,-0.6928 -1.916454,-3.29378 -3.336311,-5.779968 -1.419858,-2.486191 -4.058322,-7.087251 -5.863252,-10.224581 -1.804931,-3.13733 -5.951496,-10.35373 -9.214587,-16.03644 -3.263092,-5.68271 -7.570265,-13.17419 -9.571497,-16.64773 -2.001231,-3.47354 -3.587857,-6.36628 -3.525838,-6.4283 0.06202,-0.062 0.944249,0.18811 1.960509,0.55583 1.642345,0.59427 1.823406,0.62311 1.628778,0.25945 -0.120433,-0.22503 -1.7128,-2.97465 -3.538591,-6.11026 -1.825793,-3.13562 -3.431794,-5.91071 -3.568891,-6.16688 -0.24017,-0.44876 -0.21928,-0.46047 0.572154,-0.32066 0.451784,0.0798 0.938651,0.25492 1.081926,0.38912 0.229554,0.21502 6.156654,10.43547 18.242073,31.45587 2.042003,3.5517 6.118708,10.6228 9.059343,15.71356 2.940636,5.09077 5.624979,9.76264 5.965205,10.38194 0.340227,0.61931 0.687514,1.16861 0.771749,1.22067 0.139907,0.0865 5.102923,-8.54752 26.095593,-45.39752 4.04665,-7.10339 7.51479,-13.07375 7.70697,-13.26748 0.19218,-0.19372 0.72633,-0.41861 1.187,-0.49977 l 0.83759,-0.14756 -0.48918,0.82266 c -2.24318,3.77242 -6.91083,11.9594 -6.85197,12.01826 0.0405,0.0405 0.87493,-0.2713 1.85419,-0.69299 0.97925,-0.42169 1.83147,-0.7157 1.89382,-0.65335 0.0624,0.0623 -1.69604,3.29618 -3.90754,7.18629 -10.50252,18.47435 -18.85322,33.17821 -22.96539,40.43733 -2.481431,4.380419 -4.682113,8.240639 -4.890399,8.578269 l -0.378704,0.61387 z m 0.847979,-27.843529 c -2.686836,-11.11027 -3.79101,-14.97088 -4.271765,-14.93571 -0.183868,0.0134 -2.049955,1.11349 -4.146856,2.44453 -2.096901,1.33104 -3.851187,2.38144 -3.898411,2.33422 -0.04722,-0.0472 0.452933,-1.1957 1.111461,-2.55216 0.658527,-1.35647 1.513618,-3.15275 1.900204,-3.99174 l 0.702884,-1.52543 -2.608595,0.61027 c -5.951347,1.39229 -7.781875,1.66854 -6.799819,1.02617 1.18906,-0.77778 13.410264,-8.20504 13.656424,-8.2995 0.169001,-0.0649 1.084382,0.3191 2.034185,0.85323 0.949801,0.53413 1.909527,1.02911 2.132726,1.09995 0.257154,0.0816 1.067565,-0.22647 2.212276,-0.84104 0.993553,-0.53341 2.04317,-0.97145 2.33248,-0.97343 0.80707,-0.006 14.00364,7.91994 14.00364,8.41016 0,0.29537 -0.18513,0.26392 -5.00765,-0.85061 -4.21743,-0.97469 -4.46167,-1.00825 -4.33053,-0.59505 0.0764,0.24085 0.90839,1.97055 1.84876,3.84378 0.94038,1.87323 1.6763,3.50631 1.63538,3.62907 -0.0409,0.12275 -1.23476,-0.5249 -2.65297,-1.43923 -3.38625,-2.18312 -5.47008,-3.40146 -5.59838,-3.27316 -0.12166,0.12166 -2.89937,10.4484 -3.626075,13.4807 -0.377037,1.57325 -0.531082,1.9514 -0.629369,1.54498 z m -2.841707,-26.34368 c -1.302288,-0.73657 -4.983135,-2.77977 -8.179661,-4.54044 -6.500521,-3.58054 -7.426271,-4.12783 -7.426271,-4.39028 0,-0.10041 0.55697,-0.48082 1.237712,-0.84536 1.545545,-0.82763 2.137087,-1.26024 1.962264,-1.43507 -0.07468,-0.0747 -3.169175,-1.1976 -6.876645,-2.49537 -8.749022,-3.062524 -12.252145,-4.353364 -12.252145,-4.514704 0,-0.0718 2.106801,-0.0936 4.68178,-0.0485 2.574979,0.0451 5.262966,0.002 5.973305,-0.0949 l 1.291526,-0.17686 -1.50678,-1.25433 c -2.262081,-1.88308 -4.745011,-3.56908 -11.623729,-7.89296 -3.433305,-2.15813 -7.111287,-4.51736 -8.173294,-5.24274 -2.334092,-1.59424 -4.844836,-3.872984 -4.370131,-3.966314 0.987322,-0.19411 10.835688,3.001214 21.799357,7.072844 3.551695,1.31901 6.675572,2.44823 6.94195,2.50938 0.433474,0.0995 0.484322,0.0294 0.484322,-0.66731 0,-0.42817 0.08623,-0.77848 0.191632,-0.77848 0.216509,0 6.955506,4.35764 9.004761,5.82275 0.736787,0.52676 1.342189,1.04798 1.345339,1.15826 0.0031,0.11028 -1.562378,1.77906 -3.478948,3.7084 -1.916572,1.92935 -3.429187,3.563394 -3.361369,3.631214 0.06782,0.0678 0.899549,-0.0749 1.848291,-0.31712 2.416528,-0.617 6.635451,-1.518764 7.105553,-1.518764 0.322354,0 0.463841,0.348574 0.78636,1.937294 0.216305,1.06551 0.452738,1.93522 0.525408,1.93269 0.152155,-0.005 0.9059,-1.05507 2.073204,-2.88745 l 0.813911,-1.277644 -1.068466,0.900954 c -0.587657,0.49552 -1.121645,0.90094 -1.186641,0.90094 -0.065,0 -0.243388,-0.59002 -0.396423,-1.311174 -0.153037,-0.72114 -0.407524,-1.36077 -0.565527,-1.4214 -0.158003,-0.0606 -1.562205,0.0949 -3.12045,0.34555 -1.558247,0.25069 -2.886254,0.40271 -2.951127,0.33784 -0.06488,-0.0649 1.015415,-1.25428 2.400642,-2.64313 1.385228,-1.38884 2.517061,-2.62058 2.515188,-2.73719 -0.0019,-0.11662 -1.415204,-1.12234 -3.140729,-2.23494 -3.552513,-2.29064 -5.681287,-3.81467 -5.681287,-4.06735 0,-0.0944 1.696905,0.25878 3.770901,0.78487 2.073996,0.52609 3.825175,0.90226 3.891508,0.83592 0.06634,-0.0663 -0.170694,-0.7818 -0.526731,-1.58993 -0.356037,-0.80813 -0.606845,-1.50982 -0.55735,-1.55932 0.04949,-0.0495 0.599555,0.23007 1.222356,0.62126 2.130005,1.33786 2.550016,1.56174 2.682124,1.42963 0.218702,-0.2187 -0.740221,-3.22964 -2.408562,-7.562673 C 50.03284,10.210973 49.402055,8.3850722 49.177037,7.2248015 l -0.145372,-0.749578 0.550345,0.645763 c 0.664281,0.779452 3.48731,4.8212875 6.54,9.3635605 1.233263,1.83504 2.350465,3.33644 2.482667,3.33644 0.132205,0 1.90342,-2.51848 3.936038,-5.596611 5.05087,-7.6488985 5.32811,-8.0304645 5.41441,-7.4517735 0.0784,0.525848 -1.3215,4.6524545 -3.60864,10.6373345 -0.85052,2.22562 -1.51608,4.23608 -1.479,4.4677 0.0604,0.37765 0.25203,0.30991 1.8562,-0.65633 1.58873,-0.95693 2.1934,-1.23451 2.1934,-1.00692 0,0.0388 -0.24216,0.66647 -0.53814,1.39487 -0.29597,0.7284 -0.53813,1.37472 -0.53813,1.43627 0,0.22937 0.85318,0.0924 3.99036,-0.64067 1.77136,-0.41391 3.29902,-0.75294 3.3948,-0.75339 0.44187,-0.002 -0.39029,0.63368 -4.38489,3.34998 -2.36049,1.60511 -4.2918,2.97636 -4.2918,3.04723 0,0.0709 1.18163,1.32406 2.62584,2.78489 3.00096,3.0355 3.02701,2.95657 -0.73473,2.22621 -3.16627,-0.61475 -3.06814,-0.63511 -3.36895,0.69892 -0.42034,1.864104 -0.51722,1.912414 -1.634997,0.815404 -0.537346,-0.527374 -0.976992,-0.883284 -0.976992,-0.790924 0,0.24368 1.049517,2.015344 1.909839,3.223954 0.84834,1.19177 0.91377,1.14511 1.31018,-0.93445 0.1467,-0.76953 0.35589,-1.56586 0.46488,-1.76961 0.23705,-0.443184 0.42131,-0.418064 4.52475,0.61697 2.72141,0.68644 5.2236,1.18704 5.08673,1.01768 -0.032,-0.0396 -1.6997,-1.72239 -3.70593,-3.739454 -3.13684,-3.1538 -3.60409,-3.7085 -3.33644,-3.96093 0.27776,-0.26195 9.12033,-6.25869 9.86901,-6.69283 0.24514,-0.14215 0.2798,-0.0108 0.18454,0.69941 l -0.11728,0.87442 1.10698,-0.38547 c 0.60884,-0.21202 3.28643,-1.25847 5.9502,-2.32546 9.28383,-3.71868 15.211026,-5.702085 19.756585,-6.611095 0.98057,-0.196092 1.88751,-0.321645 2.01542,-0.279008 0.31493,0.104978 -2.04568,2.263763 -4.4322,4.053263 -1.072019,0.80383 -4.951919,3.41841 -8.622005,5.81017 -3.67008,2.39176 -7.92063,5.23304 -9.44566,6.31394 l -2.77279,1.96529 0.94312,0.14549 c 0.51872,0.08 3.16617,0.15266 5.88321,0.16144 2.71705,0.009 4.84807,0.0979 4.7356,0.19814 -0.20592,0.18345 -6.58831,2.648624 -13.76552,5.316874 -2.13101,0.79225 -3.94927,1.50842 -4.04056,1.59151 -0.0913,0.0831 0.65826,0.58007 1.66567,1.1044 1.00741,0.52434 1.8328,1.02538 1.83421,1.11343 0.002,0.088 -1.46087,0.89303 -3.2495,1.78883 -4.08304,2.04493 -8.03672,4.23485 -11.967496,6.62875 -1.681723,1.02418 -3.231554,1.85429 -3.444068,1.84468 -0.212514,-0.01 -1.451898,-0.62014 -2.754187,-1.35671 z m 3.375774,-12.55727 0.590886,-7.666634 -0.476549,-0.46186 c -0.262104,-0.25403 -0.600576,-0.64935 -0.752165,-0.8785 -0.230328,-0.34818 -0.298058,-0.36358 -0.412218,-0.0937 -0.07513,0.17758 -0.406168,0.57497 -0.735632,0.88309 l -0.599026,0.56021 0.794275,7.764674 c 0.43685,4.27057 0.84046,7.71848 0.896908,7.66203 0.05645,-0.0564 0.368535,-3.55262 0.693521,-7.76926 z M 25.296495,12.896249 C 15.842417,10.238118 8.058276,8.1122695 7.998403,8.1721412 c -0.05987,0.05987 0.346783,0.944743 0.903677,1.9663808 0.556894,1.021635 0.965536,1.90452 0.908092,1.961965 -0.05744,0.05744 -0.640502,-0.05139 -1.295685,-0.241862 L 7.323245,11.512322 5.3903247,8.2403772 C 4.3161307,6.4220395 3.5679847,4.9429745 3.7063117,4.9111265 3.8432107,4.8796065 12.32075,7.2087415 22.545289,10.086979 l 18.590071,5.233158 0.836624,1.17136 c 0.460143,0.64425 0.836625,1.19683 0.836625,1.22796 0,0.10009 -0.07808,0.0786 -17.512114,-4.823208 z m 47.64771,4.709158 c 0,-0.0864 0.31481,-0.63379 0.69957,-1.21634 0.83626,-1.26612 -0.35695,-0.85412 12.21569,-4.217971 5.38673,-1.441241 13.717066,-3.6767968 18.511855,-4.9679005 4.79479,-1.291105 8.83147,-2.322106 8.9704,-2.291113 0.14319,0.03194 -0.56739,1.454771 -1.64068,3.2851647 -1.8386,3.1355648 -1.92294,3.2399138 -2.92032,3.6131608 -0.56487,0.211392 -1.10066,0.356689 -1.19063,0.322881 -0.09,-0.03381 0.35557,-0.957462 0.9901,-2.052567 0.63453,-1.0951058 1.07102,-1.9911015 0.96999,-1.9911015 -0.10103,0 -1.86457,0.4420627 -3.91899,0.9823617 -8.944779,2.3524298 -32.172795,8.5126748 -32.417915,8.5974848 -0.14799,0.0512 -0.26907,0.0224 -0.26907,-0.0641 z"
       id="path986" />
  </g>
</svg>
