<?xml version="1.0" encoding="UTF-8" standalone="no"?>
<!-- Created with Inkscape (http://www.inkscape.org/) -->

<svg
   width="175mm"
   height="175mm"
   viewBox="0 0 175 175"
   version="1.1"
   id="svg147"
   inkscape:version="1.1.1 (3bf5ae0d25, 2021-09-20)"
   sodipodi:docname="studylogogreen.svg"
   xmlns:inkscape="http://www.inkscape.org/namespaces/inkscape"
   xmlns:sodipodi="http://sodipodi.sourceforge.net/DTD/sodipodi-0.dtd"
   xmlns="http://www.w3.org/2000/svg"
   xmlns:svg="http://www.w3.org/2000/svg">
  <sodipodi:namedview
     id="namedview149"
     pagecolor="#ffffff"
     bordercolor="#666666"
     borderopacity="1.0"
     inkscape:pageshadow="2"
     inkscape:pageopacity="0.0"
     inkscape:pagecheckerboard="0"
     inkscape:document-units="mm"
     showgrid="false"
     inkscape:zoom="0.72337262"
     inkscape:cx="397.44385"
     inkscape:cy="451.35797"
     inkscape:window-width="1920"
     inkscape:window-height="1001"
     inkscape:window-x="-9"
     inkscape:window-y="-9"
     inkscape:window-maximized="1"
     inkscape:current-layer="layer1" />
  <defs
     id="defs144" />
  <g
     inkscape:label="Layer 1"
     inkscape:groupmode="layer"
     id="layer1">
    <path
       style="fill:#3ab13a;stroke-width:0.208836;fill-opacity:1"
       d="m 38.996603,169.90817 c -1.066732,-0.3918 -3.169862,-2.00001 -2.929647,-2.24023 0.104173,-0.10417 0.888455,-0.38223 1.742844,-0.6179 2.617797,-0.7221 4.174541,-1.9217 5.174536,-3.98741 0.401156,-0.82868 0.504003,-1.61013 0.768393,-5.83835 0.42873,-6.85642 0.971256,-9.00614 3.088112,-12.23637 1.398983,-2.13479 3.60405,-4.07423 6.017287,-5.29243 2.980343,-1.50447 8.826444,-2.50722 12.818505,-2.19868 3.24699,0.25095 7.590181,1.47017 10.897275,3.05908 0.939658,0.45147 1.855928,0.76426 2.036156,0.6951 0.200161,-0.0768 0.327685,-0.0136 0.327685,0.16254 0,0.25187 2.815759,1.71131 7.204858,3.73437 0.68916,0.31765 2.00483,0.92751 2.923711,1.35525 4.966254,2.31178 7.324174,2.83559 10.949662,2.43245 1.90441,-0.21176 4.56575,-0.78344 6.80144,-1.46101 1.32534,-0.40168 3.64377,-1.74229 5.90508,-3.41458 1.29518,-0.95781 2.89278,-2.13206 3.55022,-2.60944 3.27534,-2.37829 7.09078,-6.32933 9.34282,-9.67487 0.50383,-0.74846 1.21423,-1.78374 1.57868,-2.30061 0.36444,-0.51687 0.88394,-1.41358 1.15444,-1.99268 0.2705,-0.57911 0.7827,-1.33092 1.13823,-1.67069 0.62935,-0.60146 0.69979,-0.61719 2.66726,-0.59559 2.24034,0.0246 3.83795,0.46286 5.88321,1.61392 3.32268,1.86999 5.26533,5.96884 5.55916,11.72943 0.10652,2.08839 0.0608,2.51551 -0.50354,4.69882 -1.09452,4.23489 -3.98911,9.67636 -7.16532,13.46995 -3.37584,4.03202 -6.98547,6.91955 -11.56798,9.25383 -2.8236,1.4383 -3.7863,1.78896 -6.47393,2.35808 -4.86623,1.03046 -10.68063,0.33549 -15.97599,-1.90955 -0.96229,-0.40797 -8.997688,-5.24741 -12.634606,-7.60937 -0.5743,-0.37297 -2.009502,-1.27841 -3.189338,-2.01207 -1.179836,-0.73366 -2.589482,-1.61083 -3.132547,-1.94927 -0.543065,-0.33844 -2.06812,-1.31758 -3.389011,-2.17587 -5.877443,-3.81907 -10.1642,-5.50708 -15.488293,-6.09888 -3.776014,-0.41972 -7.298089,0.31941 -9.523386,1.99855 -3.09202,2.33314 -4.413126,5.71977 -4.150155,10.63884 0.124176,2.32281 0.447612,4.40265 0.953813,6.13346 0.329796,1.12764 -0.338666,0.76468 -1.544824,-0.83882 -0.577794,-0.76813 -1.098898,-1.40174 -1.158009,-1.40801 -0.05911,-0.006 -0.409401,0.62294 -0.778419,1.39824 -1.323173,2.77998 -2.69663,4.12081 -5.168373,5.04561 -1.534129,0.57399 -2.787534,0.69398 -3.710009,0.35516 z M 144.81868,133.18193 c -1.04957,-3.20986 -1.83635,-4.56126 -3.68236,-6.32492 -1.83541,-1.75355 -3.47806,-2.65489 -6.12598,-3.36139 -1.22005,-0.32553 -2.17001,-0.38604 -5.743,-0.36581 -4.64926,0.0263 -6.32537,0.2483 -9.95978,1.31907 -3.49599,1.02999 -6.01576,1.45042 -9.56643,1.59618 -4.84877,0.19905 -8.35344,-0.47841 -12.008098,-2.32119 -1.62457,-0.81916 -6.352654,-4.7014 -7.130985,-5.85528 -0.622414,-0.92273 -2.554359,-4.04214 -3.094178,-4.99601 -1.916008,-3.38562 -3.084537,-5.58472 -3.48566,-6.55979 -0.967011,-2.35066 -0.555229,-2.26542 2.180203,0.45132 2.070914,2.05677 2.167476,2.12422 2.466227,1.72291 0.17101,-0.22972 1.543642,-1.66193 3.050296,-3.18267 2.155587,-2.17575 2.799207,-2.71534 3.020127,-2.53198 0.15442,0.12815 0.62564,0.80854 1.04717,1.51197 1.70686,2.84838 2.23788,3.28431 5.223658,4.28823 1.53628,0.51654 2.26582,0.64506 3.65464,0.6438 2.94731,-0.003 4.10927,-0.26132 11.23727,-2.50129 3.63481,-1.14224 4.18976,-1.2453 6.7367,-1.25109 4.09555,-0.009 8.5534,1.46897 11.98268,3.97359 1.93054,1.41 4.23004,3.87079 5.84436,6.25429 1.66367,2.45635 3.99766,7.09713 4.65154,9.24887 0.58003,1.90871 1.06601,5.03483 1.06601,6.85728 0,1.47828 -0.33674,3.10681 -0.64242,3.10681 -0.0872,0 -0.41214,-0.7753 -0.72199,-1.7229 z M 85.378414,103.6047 c -1.187735,-1.36439 -2.738304,-3.17343 -3.445708,-4.020108 -0.707404,-0.84667 -1.459215,-1.72735 -1.670692,-1.95707 -4.121686,-4.47727 -5.026837,-6.51371 -4.472439,-10.062263 0.426655,-2.730903 2.631149,-8.773269 4.900464,-13.431843 1.611383,-3.307935 2.087578,-5.292715 1.951318,-8.133088 -0.100661,-2.098324 -0.252888,-2.76289 -1.545381,-6.746512 -0.181891,-0.560607 0.225512,-0.473748 3.81142,0.81262 l 3.284058,1.178086 0.959522,-0.321896 c 1.490046,-0.499871 3.807186,-1.347524 4.614166,-1.687946 l 0.73092,-0.308339 0.003,5.671799 c 0.002,4.661871 0.0666,5.921293 0.36049,7.072962 0.28107,1.101512 3.31906,7.969572 4.34534,9.823641 0.47619,0.860277 1.891598,4.594639 2.204708,5.816827 0.71241,2.780798 -0.0996,5.240602 -2.578138,7.809912 -0.77561,0.80402 -1.66274,1.77236 -1.97139,2.15187 -0.81227,0.99876 -4.58678,5.083298 -6.551047,7.089138 -1.255341,1.28191 -1.825903,1.72291 -2.229123,1.72291 -0.431738,0 -0.981038,-0.50442 -2.70145,-2.4807 z m 3.894963,-38.238698 c 0.520974,-1.090005 0.566914,-1.312424 0.307182,-1.487285 -0.328162,-0.22093 -2.200966,-0.136287 -2.447885,0.110633 -0.169688,0.169688 1.206565,2.857059 1.401466,2.736604 0.06966,-0.04305 0.402315,-0.65503 0.739237,-1.359952 z M 64.010774,86.497837 c -1.429431,-0.490056 -2.058645,-1.418075 -1.940738,-2.862361 0.08941,-1.095201 0.244777,-1.380171 2.373322,-4.35309 1.924301,-2.687653 1.080023,-2.295967 -2.256587,1.046895 l -3.05445,3.060173 -1.11341,0.09169 c -2.310489,0.190277 -5.745389,-0.977777 -6.708689,-2.281322 -0.66035,-0.89359 -0.343977,-1.474277 2.082916,-3.823077 1.216048,-1.176917 2.118205,-2.197196 2.004792,-2.26729 -0.113411,-0.07009 -1.559167,0.562864 -3.21279,1.406566 -3.027484,1.544667 -4.928033,2.168752 -5.878283,1.930255 -0.813771,-0.204245 -4.333162,-2.878018 -4.333162,-3.292017 0,-0.56667 0.438019,-0.888719 2.969884,-2.183568 3.791674,-1.939147 5.938534,-3.437611 4.913692,-3.429657 -0.273108,0.0021 -6.64001,1.603395 -8.849351,2.225611 -1.088324,0.306505 -1.409337,0.321171 -2.152977,0.09837 -0.480672,-0.144014 -1.032826,-0.446064 -1.227008,-0.671226 -0.81503,-0.945049 -2.75468,-4.261106 -2.75468,-4.70944 0,-0.673945 0.682419,-1.045972 2.401619,-1.309269 1.671504,-0.255994 6.941776,-1.568473 7.155193,-1.781891 0.383248,-0.383246 -0.929853,-0.639405 -6.006592,-1.171759 -1.206031,-0.126465 -2.940764,-0.293803 -3.854965,-0.371864 l -1.662182,-0.141928 -0.948274,-1.188039 c -1.181099,-1.479736 -2.927269,-4.527845 -3.218132,-5.617572 -0.182394,-0.68334 -0.160854,-0.877329 0.129669,-1.167852 0.317531,-0.317533 0.585011,-0.324795 3.019403,-0.08197 5.567275,0.555311 6.26978,0.621973 8.076644,0.766419 1.533613,0.122604 1.838709,0.09821 1.759086,-0.140664 -0.09145,-0.274348 -3.924338,-1.090007 -7.791233,-1.658015 -3.222424,-0.473341 -5.019798,-1.04762 -6.215141,-1.985805 -2.102682,-1.650322 -7.350834,-8.615963 -8.234096,-10.92875 -0.370248,-0.969478 -0.229409,-1.534479 0.414098,-1.661238 0.330254,-0.06505 3.326385,0.909593 10.171664,3.30886 4.760289,1.66848 4.77334,1.672256 4.925753,1.425649 0.07048,-0.114041 0.09278,-0.242714 0.04955,-0.285943 -0.332474,-0.332474 -8.47351,-3.807929 -11.553652,-4.932319 -3.225139,-1.177322 -6.681879,-3.768684 -7.979866,-5.982149 -0.793157,-1.352573 -2.353452,-5.29611 -2.355622,-5.953665 -0.0011,-0.342379 0.135972,-0.633768 0.333936,-0.709735 0.357627,-0.137233 2.146859,0.360517 3.527622,0.981358 0.45944,0.206581 2.020455,0.848209 3.46892,1.425838 2.2716,0.905884 3.421305,1.395758 7.18174,3.060033 0.34458,0.152503 1.143379,0.51054 1.77511,0.79564 0.63173,0.285099 1.795939,0.810085 2.587133,1.166633 0.791191,0.356551 1.574328,0.648273 1.740303,0.648273 0.792793,0 -0.137325,-0.654022 -2.986882,-2.100254 C 22.926314,26.904337 16.68309,23.658974 15.319335,22.853473 10.728097,20.141662 8.5815679,17.776861 6.5874039,13.233628 5.5875219,10.955632 4.5919669,7.5679863 4.5919669,6.4436113 c 0,-0.799986 0.266482,-0.776486 2.625891,0.231565 1.696353,0.724761 11.4315471,5.6717197 13.7677721,6.9961227 0.45944,0.260456 2.526921,1.342781 4.594402,2.405167 3.695338,1.898869 5.75514,2.964975 12.657896,6.55143 3.215043,1.670438 4.153439,2.042686 4.153439,1.647614 0,-0.08515 -0.346614,-0.658086 -0.770251,-1.273191 -1.10207,-1.600155 -4.177784,-3.58429 -9.334593,-6.021718 -1.020693,-0.482443 -1.949441,-0.970805 -2.063885,-1.085249 -0.338244,-0.338244 0.0021,-0.862665 0.559805,-0.862665 1.201895,0 7.197912,2.743175 10.171459,4.65344 1.293648,0.831063 3.091373,2.713883 4.305114,4.508891 0.432845,0.640138 1.412294,2.066491 2.176554,3.169676 1.381115,1.993593 2.876323,4.684151 3.823911,6.88095 0.272496,0.63173 0.864697,1.9474 1.316003,2.923711 0.451309,0.97631 1.175188,2.620898 1.608624,3.654638 0.433436,1.033741 1.051408,2.490375 1.373269,3.236966 0.321863,0.74659 0.792952,1.921296 1.046868,2.610456 1.005637,2.729424 2.581872,6.309207 3.131697,7.112386 0.73817,1.078313 2.0425,2.258811 3.05978,2.769291 0.4359,0.218739 1.685323,0.648494 2.776493,0.955011 4.042358,1.135524 8.030585,3.368241 10.699298,5.989755 1.728266,1.697696 2.260763,2.628079 2.680687,4.683716 0.476885,2.334476 0.214079,3.217723 -1.934138,6.500317 -4.470577,6.831292 -6.789284,10.227504 -7.406528,10.84834 -1.258924,1.266257 -3.566682,1.664953 -5.60076,0.967604 z m 43.731646,-1.661551 c -1.09769,-0.555988 -1.24705,-0.745615 -4.68406,-5.94664 -1.95262,-2.954786 -4.051278,-6.149984 -4.663678,-7.100441 l -1.11346,-1.728101 0.0748,-1.990907 c 0.0972,-2.585747 0.7026,-3.909547 2.684158,-5.869396 2.96668,-2.934159 6.62996,-4.910896 12.13171,-6.546381 1.35716,-0.403438 2.03536,-0.739744 2.73668,-1.357075 1.27812,-1.12504 2.49679,-3.070607 3.40325,-5.433145 0.41866,-1.091171 1.02421,-2.594793 1.34566,-3.341384 0.32146,-0.74659 1.34751,-3.206976 2.28013,-5.467523 0.9326,-2.260546 2.1289,-5.032851 2.65844,-6.160676 0.52953,-1.127826 1.12596,-2.426497 1.3254,-2.885937 0.88226,-2.032392 5.48219,-8.848565 7.29466,-10.809212 1.22907,-1.329547 3.12876,-2.539767 7.15424,-4.557677 4.27671,-2.143849 5.63331,-2.494662 5.77543,-1.493507 0.0588,0.414358 -0.20022,0.598469 -2.08837,1.484319 -2.53965,1.191511 -6.76765,3.538993 -7.82088,4.342333 -0.40793,0.311143 -1.11265,1.111977 -1.56604,1.779629 -0.72987,1.074769 -0.77673,1.21391 -0.40887,1.21391 0.52189,0 7.73926,-3.664019 19.85721,-10.080855 5.45663,-2.8894557 16.75709,-8.5055937 17.11445,-8.5055937 0.73498,0 0.57189,1.730588 -0.44079,4.677342 -1.19598,3.4801577 -2.11663,5.4391797 -3.24883,6.9130847 -2.28534,2.975082 -4.69378,4.684271 -11.5453,8.193317 -2.46949,1.264764 -6.36951,3.270457 -8.66671,4.457095 -2.2972,1.18664 -4.38744,2.255879 -4.64498,2.37609 -0.39541,0.184559 -0.67737,0.740653 -0.37555,0.740653 0.13964,0 4.78836,-2.006257 6.37797,-2.752553 0.74659,-0.350511 1.68635,-0.756784 2.08836,-0.902829 0.40201,-0.146044 1.81166,-0.737749 3.13255,-1.314902 4.00897,-1.75168 8.24166,-3.383176 8.7772,-3.383176 0.8218,0 0.69145,0.901036 -0.59733,4.128775 -1.2723,3.186486 -2.50149,4.768391 -5.0778,6.534838 -1.35917,0.931918 -2.49238,1.458005 -6.54787,3.039799 -1.60804,0.627197 -3.58155,1.45483 -4.38557,1.839188 -0.80402,0.384355 -2.19017,1.004547 -3.08034,1.378201 -0.89347,0.375044 -1.61848,0.806727 -1.61848,0.963674 0,0.156365 0.0391,0.2843 0.0869,0.2843 0.12234,0 8.64712,-2.890481 11.97922,-4.06177 1.76767,-0.621365 2.93114,-0.924523 3.20932,-0.836233 1.04886,0.332894 -0.17889,2.945697 -3.4537,7.349915 -3.27545,4.405086 -4.78446,5.818447 -6.8097,6.378058 -1.26208,0.348734 -7.22429,1.471867 -10.02415,1.8883 -1.29394,0.192451 -1.77511,0.346441 -1.77511,0.568087 0,0.407304 0.86107,0.352341 10.1856,-0.650177 2.74864,-0.295518 3.01282,-0.188489 2.87092,1.163082 -0.0783,0.746114 -1.91489,4.069385 -3.05206,5.522735 -1.26316,1.614367 -0.77197,1.464 -6.20212,1.89862 -2.98118,0.238608 -6.21145,0.751636 -6.49065,1.030838 -0.23267,0.232673 1.19281,0.657795 5.29876,1.580249 1.78033,0.399974 3.44841,0.818155 3.70685,0.929291 0.9406,0.404489 0.56197,1.530966 -1.62771,4.842668 -0.89468,1.353116 -2.66439,1.789048 -4.55496,1.122013 -1.00952,-0.356179 -8.01654,-2.203442 -8.35808,-2.203442 -0.50532,0 -0.19334,0.55983 0.59789,1.072875 0.45778,0.296827 2.28508,1.317134 4.06067,2.267344 1.7756,0.95021 3.27763,1.856065 3.33786,2.01301 0.1903,0.495916 -0.0577,0.772656 -1.98681,2.217094 -1.64619,1.232593 -1.99605,1.409646 -2.78547,1.409646 -1.13128,0 -3.14171,-0.746285 -5.94798,-2.207932 -2.04847,-1.066945 -2.7315,-1.316265 -2.7315,-0.997052 0,0.07502 0.98675,1.08793 2.19278,2.250911 2.00282,1.931332 2.19278,2.180969 2.19278,2.881695 0,0.676444 -0.11335,0.845174 -0.95829,1.426508 -1.89016,1.300468 -4.49948,2.037053 -6.21179,1.753529 -0.77636,-0.128548 -1.20318,-0.482415 -3.96081,-3.283789 -2.25035,-2.286041 -3.15324,-3.07717 -3.32073,-2.909679 -0.16749,0.167489 0.21394,0.842245 1.40287,2.481675 1.85114,2.552573 2.2743,3.597404 1.94611,4.805158 -0.29759,1.095095 -0.6973,1.478938 -1.91737,1.841261 -1.66981,0.49588 -3.21549,0.406237 -4.53701,-0.263125 z M 84.889588,58.921899 C 84.085568,58.484142 82.20604,57.487205 80.712859,56.706486 75.619931,54.043619 74.547378,53.422167 74.323929,53.004649 74.201035,52.775018 73.835358,51.772973 73.511313,50.77788 73.187268,49.782786 72.537087,47.903573 72.06647,46.601851 71.59585,45.30013 71.2108,44.195907 71.2108,44.148023 c 0,-0.344088 3.485301,0.810143 8.419169,2.788184 l 1.423145,0.570556 2.302163,4.803239 c 3.267568,6.817467 3.528762,7.41413 3.244114,7.410757 -0.13637,-0.0017 -0.905782,-0.361101 -1.709803,-0.79886 z m 4.853635,0.456408 c 0.210313,-0.519779 1.760043,-3.694393 4.098789,-8.39635 l 1.90707,-3.834084 1.77511,-0.61187 c 3.236598,-1.115638 7.406778,-2.475042 7.592578,-2.475042 0.31764,0 -0.24743,1.734282 -2.10937,6.473931 -1.59497,4.060076 -0.95131,3.47288 -7.004488,6.390033 -2.93917,1.416446 -5.585638,2.63602 -5.881039,2.710161 -0.464663,0.116623 -0.515726,0.082 -0.37865,-0.256779 z m -2.426249,-1.795183 c -3.287097,-6.893777 -5.037842,-10.659107 -5.037842,-10.834897 0,-0.355743 5.646001,-13.414957 5.916941,-13.685895 0.14275,-0.142752 1.086238,1.836867 2.504835,5.255625 0.524265,1.263461 1.434344,3.377931 2.022384,4.698821 0.58805,1.320891 1.21545,2.757162 1.39423,3.191711 l 0.32504,0.790093 -3.07372,6.15372 c -1.690548,3.384549 -3.108965,6.153723 -3.152038,6.153723 -0.04307,0 -0.447996,-0.775306 -0.89983,-1.722901 z"
       id="path325" />
  </g>
</svg>
